<svg width="48" height="48" viewBox="0 0 48 48" fill="none" xmlns="http://www.w3.org/2000/svg">
<rect width="47.6968" height="47.6968" rx="23.8484" fill="#00D95F"/>
<path d="M11.9238 34.8896L13.6349 28.5275C12.255 26.0491 11.8165 23.157 12.4001 20.382C12.9836 17.6069 14.55 15.135 16.8118 13.4199C19.0735 11.7048 21.879 10.8614 24.7133 11.0447C27.5476 11.2279 30.2206 12.4254 32.242 14.4174C34.2633 16.4094 35.4972 19.0623 35.7174 21.8893C35.9376 24.7163 35.1293 27.5278 33.4407 29.8078C31.7521 32.0878 29.2966 33.6835 26.5247 34.3019C23.7529 34.9203 20.8506 34.5201 18.3504 33.1747L11.9238 34.8896ZM18.6603 30.7939L19.0578 31.0293C20.8687 32.1009 22.9838 32.5443 25.0735 32.2905C27.1632 32.0367 29.1101 31.0999 30.6108 29.6261C32.1116 28.1523 33.0818 26.2242 33.3703 24.1424C33.6589 22.0607 33.2495 19.942 32.2061 18.1168C31.1626 16.2915 29.5437 14.8621 27.6015 14.0513C25.6594 13.2405 23.5031 13.0939 21.4688 13.6343C19.4345 14.1747 17.6363 15.3717 16.3546 17.0389C15.0728 18.706 14.3795 20.7497 14.3826 22.8513C14.3809 24.5939 14.8637 26.3027 15.7771 27.7877L16.0263 28.1979L15.0698 31.7489L18.6603 30.7939Z" fill="white"/>
<path fill-rule="evenodd" clip-rule="evenodd" d="M28.3072 24.4848C28.0742 24.2972 27.8014 24.1652 27.5096 24.0987C27.2177 24.0323 26.9145 24.0332 26.6231 24.1015C26.1852 24.2831 25.9023 24.9691 25.6194 25.312C25.5597 25.3943 25.472 25.4519 25.3728 25.4742C25.2736 25.4965 25.1696 25.4819 25.0804 25.4331C23.4774 24.8063 22.1337 23.6568 21.2676 22.1713C21.1937 22.0786 21.1588 21.9609 21.1701 21.843C21.1814 21.7251 21.2381 21.6162 21.3282 21.5391C21.6438 21.2273 21.8755 20.841 22.0019 20.416C22.0299 19.9473 21.9224 19.4803 21.692 19.0709C21.5139 18.497 21.1749 17.9859 20.7152 17.5981C20.4781 17.4916 20.2152 17.4559 19.9582 17.4953C19.7012 17.5347 19.4611 17.6475 19.2669 17.82C18.9297 18.1105 18.662 18.4727 18.4837 18.8801C18.3053 19.2874 18.2207 19.7296 18.2362 20.1739C18.2372 20.4234 18.2689 20.6719 18.3305 20.9137C18.4869 21.4947 18.7275 22.0498 19.0445 22.5614C19.2733 22.9533 19.5229 23.3327 19.7923 23.698C20.6677 24.8978 21.7682 25.9164 23.0325 26.6975C23.667 27.0944 24.3451 27.417 25.0535 27.6592C25.7893 27.9922 26.6018 28.12 27.4045 28.0291C27.8619 27.96 28.2953 27.7797 28.6665 27.5041C29.0377 27.2285 29.3353 26.866 29.5333 26.4486C29.6496 26.1965 29.6848 25.9146 29.6343 25.6416C29.513 25.0834 28.7653 24.7538 28.3072 24.4848Z" fill="white"/>
</svg>
